<?xml version="1.0" encoding="UTF-8"?>
<!DOCTYPE svg PUBLIC "-//W3C//DTD SVG 1.1//EN" "http://www.w3.org/Graphics/SVG/1.1/DTD/svg11.dtd">
<!-- Creator: CorelDRAW 2020 (64 Bit Versão de avaliação) -->
<svg xmlns="http://www.w3.org/2000/svg" xml:space="preserve" width="89.017mm" height="13.255mm" version="1.1" style="shape-rendering:geometricPrecision; text-rendering:geometricPrecision; image-rendering:optimizeQuality; fill-rule:evenodd; clip-rule:evenodd"
viewBox="0 0 8901.7 1325.5"
 xmlns:xlink="http://www.w3.org/1999/xlink"
 xmlns:xodm="http://www.corel.com/coreldraw/odm/2003">
 <defs>
  <style type="text/css">
   <![CDATA[
    .fil0 {fill:#2B2A29;fill-rule:nonzero}
    .fil1 {fill:#D40000;fill-rule:nonzero}
    .fil2 {fill:white;fill-rule:nonzero}
   ]]>
  </style>
 </defs>
<symbol id="Symbol1" viewBox="8775.11 1655.53 7986.93 1233.79">
 <path class="fil0" d="M8775.11 2485.06l245.18 0c0,130.96 78.12,196.28 234.08,196.28 58.11,0 103.43,-11.96 135.95,-35.58 32.52,-23.65 48.65,-56.45 48.65,-98.99 0,-46.15 -16.4,-81.45 -48.92,-106.2 -32.52,-24.72 -90.91,-50.87 -175.69,-78.12 -84.53,-27.5 -151.52,-54.47 -200.72,-81.17 -134.57,-72.82 -201.83,-170.97 -201.83,-294.1 0,-64.22 18.07,-121.22 54.2,-171.53 35.88,-50.31 87.86,-89.53 155.41,-117.89 67.58,-28.08 143.17,-42.23 227.42,-42.23 84.5,0 160.12,15.29 226.28,46.15 66.16,30.83 117.61,74.2 154.02,130.1 36.69,56.14 55.03,119.52 55.03,190.7l-245.18 0c0,-54.23 -16.96,-96.46 -51.14,-126.49 -34.22,-30.3 -82.03,-45.32 -144.03,-45.32 -59.47,0 -105.9,12.52 -138.97,37.8 -33.11,25.31 -49.51,58.67 -49.51,99.82 0,38.63 19.48,70.87 58.11,97.02 38.94,26.14 96.18,50.59 171.53,73.4 139,41.68 240.46,93.69 303.84,155.65 63.66,61.72 95.35,139 95.35,231.3 0,102.6 -38.91,183.21 -116.47,241.57 -77.56,58.39 -181.83,87.58 -313.31,87.58 -91.19,0 -174.03,-16.68 -249.09,-50.31 -74.79,-33.36 -131.76,-79.23 -171.25,-137.34 -39.18,-58.11 -58.91,-125.66 -58.91,-202.11l-0.03 0.01z"/>
 <path id="_1" class="fil0" d="M9797.01 2422.79l0 -15.57c0,-135.92 36.16,-244.07 108.42,-324.96 72.29,-80.89 171.25,-121.49 297.19,-121.49 110.37,0 198.78,31.41 265.22,93.96 66.44,62.55 100.35,145.94 101.46,250.2l-220.18 0c-1.11,-45.6 -15.26,-82.84 -42.51,-111.2 -27.25,-28.64 -63.11,-42.82 -107.87,-42.82 -54.78,0 -96.46,20.01 -124.55,59.78 -28.08,40.02 -41.99,104.82 -41.99,194.59l0 24.2c0,90.91 13.9,155.96 41.71,195.7 27.81,39.77 70.04,59.5 126.49,59.5 43.65,0 78.95,-11.96 106.2,-35.85 27.25,-23.92 41.4,-55.61 42.51,-95.35l220.18 0c-0.55,59.75 -16.96,114.53 -48.92,164.28 -31.97,49.76 -75.87,88.42 -131.48,115.91 -55.61,27.53 -117.3,41.16 -184.6,41.16 -125.93,0 -225.45,-40.02 -298.02,-120.11 -72.82,-80.06 -109.26,-190.7 -109.26,-331.93z"/>
 <path id="_2" class="fil0" d="M10666.86 2420.01l0 -10.57c0,-87.27 16.96,-165.12 50.62,-233.77 33.63,-68.41 82.28,-121.22 145.39,-158.74 63.38,-37.55 137.06,-56.17 220.73,-56.17 118.97,0 216.01,36.41 291.33,109.26 75.34,72.57 117.33,171.53 125.93,296.35l1.66 60.33c0,135.09 -37.8,243.51 -113.42,325.24 -75.31,81.73 -176.8,122.6 -303.84,122.6 -127.32,0 -228.81,-40.6 -304.68,-122.05 -75.9,-81.45 -113.73,-192.37 -113.73,-332.48l0.01 0zm282.72 197.95c31.41,44.49 76.73,66.71 135.68,66.71 57,0 101.73,-21.95 133.98,-65.6 32,-43.65 48.12,-113.69 48.12,-209.91 0,-82 -16.12,-145.66 -48.12,-190.7 -32.25,-45.04 -77.53,-67.54 -135.64,-67.54 -57.83,0 -102.6,22.5 -134.29,67.27 -31.41,44.76 -47.26,114.28 -47.26,208.25 0,83.67 15.85,147.33 47.54,191.54l-0.01 -0.02z"/>
 <path id="_3" class="fil0" d="M11693.53 1977.44l0 -216.57 235.19 0 0 216.57 150.66 0 0 173.47 -150.66 0 0 439.24c0,32.52 6.1,55.89 18.62,70.04 12.52,14.18 36.41,21.15 71.71,21.15 26.14,0 49.23,-1.66 69.24,-5.03l0 177.39c-46.15,14.18 -93.69,21.12 -142.33,21.12 -165.15,0 -249.09,-83.11 -252.42,-249.65l0 -474.26 -128.71 0 0 -173.47 128.71 0 -0.01 0z"/>
 <path id="_4" class="fil0" d="M12257.04 1977.44l0 -216.57 235.19 0 0 216.57 150.66 0 0 173.47 -150.66 0 0 439.24c0,32.52 6.1,55.89 18.62,70.04 12.52,14.18 36.41,21.15 71.71,21.15 26.14,0 49.23,-1.66 69.24,-5.03l0 177.39c-46.15,14.18 -93.69,21.12 -142.33,21.12 -165.15,0 -249.09,-83.11 -252.42,-249.65l0 -474.26 -128.71 0 0 -173.47 128.71 0 -0.01 0z"/>
 <path class="fil1" d="M12906.75 1686.7l226.59 0 443.96 1185.93 -259.91 0 -82.31 -243.51 -428.39 0 -81.45 243.51 -259.67 0 441.18 -1185.93zm262.44 743.92l-148.99 -443.96 -147.64 443.96 296.63 0z"/>
 <polygon id="_1_0" class="fil1" points="13942.86,2682.48 14373.75,2682.48 14373.75,2872.63 13642.34,2872.63 13642.34,2729.19 14056.83,2182.08 13654.58,2182.08 13654.58,1991.93 14360.68,1991.93 14360.68,2130.93 "/>
 <polygon id="_2_1" class="fil1" points="14791.59,2682.48 15222.48,2682.48 15222.48,2872.63 14491.08,2872.63 14491.08,2729.19 14905.57,2182.08 14503.32,2182.08 14503.32,1991.93 15209.41,1991.93 15209.41,2130.93 "/>
 <path id="_3_2" class="fil1" d="M15438.77 2409.78c68.96,-50.07 168.75,-75.34 299.4,-75.9l108.42 0 0 -50.59c0,-40.88 -10.57,-73.4 -31.41,-97.88 -20.84,-24.45 -53.64,-36.69 -98.68,-36.69 -39.49,0 -70.63,9.46 -93.13,28.64 -22.54,18.9 -33.63,45.04 -33.63,78.12l-235.19 0c0,-51.14 15.85,-98.13 47.26,-141.5 31.41,-43.38 75.9,-77.29 133.42,-101.76 57.56,-24.72 122.33,-36.96 194.06,-36.96 108.39,0 194.59,27.25 258.53,81.73 63.66,54.78 95.63,131.24 95.63,230.2l0 381.96c0.55,83.39 12.24,146.77 35.02,189.59l0 13.9 -238.24 0c-10.85,-21.12 -18.62,-47.26 -23.61,-78.67 -57,63.66 -131.24,95.35 -222.4,95.35 -86.2,0 -157.9,-25.03 -214.63,-75.07 -56.72,-50.03 -85.09,-113.14 -85.09,-189.32 0,-93.41 34.77,-165.12 104.26,-215.15l0.01 0zm161.79 271.04c20.87,18.9 48.96,28.36 84.81,28.36 34.74,0 66.71,-7.8 96.18,-23.09 29.19,-15.57 50.87,-36.41 65.05,-62.27l0 -151.49 -87.86 0c-117.86,0 -180.68,40.57 -188.21,122.02l-0.83 13.9c0,29.19 10.3,53.39 30.86,72.57z"/>
 <path id="_4_3" class="fil1" d="M16486.01 1991.93l6.38 104.26c47.26,-80.62 112.86,-120.94 196.56,-120.94 25.83,0 50.31,3.33 73.09,10.02l-3.05 226.83c-32.25,-4.44 -60.33,-6.38 -84.78,-6.38 -88.97,0 -147.36,30.03 -175.14,90.33l0 576.58 -235.19 0 0 -880.7 222.12 0 0.01 0z"/>
</symbol>
 <g id="Camada_x0020_1">
  <metadata id="CorelCorpID_0Corel-Layer"/>
  <g id="_2510430410800">
   <path class="fil2" d="M42.9 879.59l242.33 0c0,129.41 77.21,193.98 231.34,193.98 57.42,0 102.21,-11.82 134.35,-35.17 32.15,-23.35 48.09,-55.77 48.09,-97.81 0,-45.61 -16.21,-80.5 -48.36,-104.96 -32.15,-24.45 -89.84,-50.28 -173.64,-77.2 -83.53,-27.2 -149.74,-53.85 -198.37,-80.23 -132.98,-71.98 -199.47,-168.97 -199.47,-290.69 0,-63.46 17.86,-119.79 53.57,-169.52 35.45,-49.73 86.82,-88.47 153.59,-116.49 66.76,-27.75 141.5,-41.77 224.75,-41.77 83.52,0 158.25,15.12 223.64,45.61 65.39,30.5 116.22,73.36 152.22,128.59 36.26,55.5 54.4,118.14 54.4,188.48l-242.33 0c0,-53.58 -16.76,-95.34 -50.56,-125.02 -33.79,-29.94 -81.05,-44.78 -142.32,-44.78 -58.8,0 -104.68,12.36 -137.38,37.37 -32.69,25 -48.9,57.97 -48.9,98.63 0,38.19 19.23,70.06 57.42,95.89 38.47,25.83 95.07,50.01 169.52,72.53 137.38,41.22 237.66,92.6 300.31,153.87 62.92,60.99 94.24,137.37 94.24,228.59 0,101.38 -38.47,181.06 -115.12,238.76 -76.66,57.7 -179.69,86.55 -309.65,86.55 -90.12,0 -171.99,-16.49 -246.18,-49.73 -73.9,-32.98 -130.23,-78.31 -169.24,-135.73 -38.74,-57.43 -58.25,-124.19 -58.25,-199.75z"/>
   <path id="_1_4" class="fil2" d="M1052.88 818.05l0 -15.39c0,-134.35 35.72,-241.23 107.16,-321.18 71.43,-79.95 169.24,-120.07 293.71,-120.07 109.07,0 196.44,31.05 262.11,92.87 65.66,61.82 99.18,144.24 100.28,247.27l-217.6 0c-1.1,-45.06 -15.11,-81.87 -42.04,-109.9 -26.92,-28.3 -62.37,-42.31 -106.6,-42.31 -54.13,0 -95.34,19.78 -123.09,59.07 -27.75,39.57 -41.49,103.58 -41.49,192.33l0 23.9c0,89.85 13.74,154.14 41.21,193.43 27.48,39.29 69.24,58.79 125.02,58.79 43.13,0 78.03,-11.81 104.95,-35.44 26.93,-23.63 40.94,-54.95 42.04,-94.24l217.6 0c-0.55,59.07 -16.76,113.2 -48.35,162.38 -31.6,49.18 -75.01,87.37 -129.96,114.57 -54.95,27.2 -115.95,40.67 -182.44,40.67 -124.46,0 -222.82,-39.57 -294.53,-118.7 -71.99,-79.13 -107.98,-188.48 -107.98,-328.05z"/>
   <path id="_2_5" class="fil2" d="M1912.58 815.3l0 -10.44c0,-86.27 16.76,-163.2 50.01,-231.07 33.24,-67.58 81.32,-119.79 143.69,-156.88 62.65,-37.09 135.45,-55.5 218.16,-55.5 117.59,0 213.48,35.99 287.93,107.98 74.46,71.71 115.95,169.52 124.47,292.88l1.65 59.63c0,133.52 -37.37,240.68 -112.1,321.45 -74.46,80.78 -174.74,121.17 -300.31,121.17 -125.83,0 -226.12,-40.11 -301.12,-120.62 -75.01,-80.5 -112.38,-190.12 -112.38,-328.6zm279.42 195.62c31.05,43.96 75.84,65.94 134.08,65.94 56.33,0 100.56,-21.7 132.43,-64.84 31.6,-43.13 47.54,-112.37 47.54,-207.43 0,-81.06 -15.94,-143.97 -47.54,-188.48 -31.87,-44.51 -76.65,-66.77 -134.07,-66.77 -57.15,0 -101.39,22.26 -132.71,66.49 -31.05,44.24 -46.71,112.92 -46.71,205.79 0,82.7 15.66,145.62 46.98,189.3z"/>
   <path id="_3_6" class="fil2" d="M2927.24 377.9l0 -214.03 232.44 0 0 214.03 148.91 0 0 171.44 -148.91 0 0 434.11c0,32.15 6.04,55.22 18.41,69.24 12.36,14.01 35.99,20.88 70.88,20.88 25.83,0 48.63,-1.65 68.42,-4.95l0 175.29c-45.61,14.02 -92.6,20.89 -140.68,20.89 -163.2,0 -246.18,-82.16 -249.47,-246.73l0 -468.73 -127.21 0 0 -171.44 127.21 0z"/>
   <path id="_4_7" class="fil2" d="M3484.16 377.9l0 -214.03 232.44 0 0 214.03 148.91 0 0 171.44 -148.91 0 0 434.11c0,32.15 6.04,55.22 18.41,69.24 12.36,14.01 35.99,20.88 70.88,20.88 25.83,0 48.63,-1.65 68.42,-4.95l0 175.29c-45.61,14.02 -92.6,20.89 -140.68,20.89 -163.2,0 -246.18,-82.16 -249.47,-246.73l0 -468.73 -127.21 0 0 -171.44 127.21 0z"/>
   <path class="fil2" d="M138.05 891.89l204.81 0c0,66.62 22.02,118.37 66.07,154.98 44.04,36.61 107.36,54.78 189.39,54.78 71.02,0 124.15,-14.31 159.94,-43.22 35.78,-28.63 53.68,-66.89 53.68,-114.24 0,-51.48 -18.17,-91.39 -54.51,-119.19 -36.34,-28.08 -101.85,-56.16 -196.55,-84.79 -94.7,-28.35 -169.85,-60.29 -226,-95.25 -107.09,-67.17 -160.49,-154.7 -160.49,-262.89 0,-94.7 38.54,-172.6 115.89,-233.99 77.35,-61.39 177.83,-91.94 301.16,-91.94 82.03,0 154.98,15.14 219.12,45.42 64.14,30.01 114.52,73.22 151.13,128.83 36.61,55.88 55.05,117.55 55.05,185.26l-204.8 0c0,-61.38 -19.27,-109.28 -57.54,-143.97 -38.54,-34.68 -93.32,-52.02 -164.89,-52.02 -66.62,0 -118.37,14.31 -154.98,42.66 -36.89,28.63 -55.33,68.27 -55.33,119.47 0,42.95 19.82,79.01 59.73,107.64 39.92,28.9 105.43,56.71 196.83,83.96 91.66,27.25 164.89,58.08 220.5,92.77 55.33,34.68 95.79,74.6 121.67,119.47 25.88,44.87 38.81,97.45 38.81,157.74 0,97.72 -37.43,175.62 -112.59,233.43 -75.15,57.81 -177,86.72 -305.83,86.72 -85.06,0 -163.24,-15.69 -234.54,-47.35 -71.3,-31.66 -126.9,-75.15 -166.27,-130.48 -39.64,-55.61 -59.46,-120.03 -59.46,-193.8zm1000.09 -74.6l0 -20.1c0,-132.68 35.51,-239.22 106.81,-319.05 71.02,-79.83 167.92,-119.74 290.42,-119.74 103.78,0 188.57,30.28 253.81,90.56 65.24,60.29 99.65,139.85 102.68,238.12l-184.71 0c-1.93,-50.1 -19,-91.12 -51.2,-123.32 -31.94,-32.21 -72.68,-48.45 -121.95,-48.45 -63.59,0 -112.59,23.12 -147,69.09 -34.41,45.97 -51.76,115.62 -52.31,209.21l0 31.39c0,94.69 17.07,165.16 51.21,211.69 34.13,46.52 83.41,69.92 148.1,69.92 48.72,0 89.46,-14.32 121.67,-42.67 32.21,-28.63 49.55,-63.87 51.48,-105.71l184.71 0c-1.93,54.23 -18.99,104.88 -50.65,152.23 -31.66,47.07 -74.88,84.24 -129.11,111.76 -54.23,27.53 -112.86,41.3 -175.9,41.3 -121.95,0 -218.85,-39.64 -290.42,-118.65 -71.85,-79 -107.64,-188.29 -107.64,-327.58zm866.31 -4.68l0 -9.64c0,-85.61 17.06,-162.69 50.92,-231.23 33.86,-68.55 81.21,-121.13 142.6,-158.01 61.11,-36.89 131.58,-55.33 211.14,-55.33 117.82,0 213.34,37.98 286.56,113.69 73.5,75.97 113.14,176.45 118.92,301.7l0.83 45.98c0,86.16 -16.52,162.96 -49.55,230.68 -33.03,67.72 -80.38,120.3 -141.77,157.46 -61.66,37.16 -132.68,55.61 -213.34,55.61 -123.05,0 -221.6,-41.02 -295.38,-123.05 -74.05,-82.04 -110.93,-191.32 -110.93,-327.86zm196.55 6.6c0,90.02 18.44,160.22 55.6,211.14 36.89,50.66 88.64,75.98 154.43,75.98 66.07,0 117.55,-25.6 154.44,-77.35 36.61,-51.48 55.05,-127.18 55.05,-226.56 0,-88.09 -18.99,-158.01 -56.71,-209.76 -37.98,-51.48 -89.19,-77.35 -154.15,-77.35 -63.87,0 -114.79,25.32 -152.23,76.25 -37.72,50.65 -56.43,126.63 -56.43,227.65zm686 -444.3l143.69 0 0 -211.96 196.55 0 0 211.96 154.16 0 0 145.35 -154.16 0 0 486.97c0,33.31 6.61,57.53 19.82,72.12 13.22,14.87 36.62,22.3 70.47,22.3 22.58,0 45.43,-2.75 68.55,-8.26l0 151.68c-44.6,12.39 -87.54,18.45 -129.11,18.45 -150.85,0 -226.28,-83.14 -226.28,-249.13l0 -494.13 -143.69 0 0 -145.35zm549.18 0l143.69 0 0 -211.96 196.55 0 0 211.96 154.16 0 0 145.35 -154.16 0 0 486.97c0,33.31 6.61,57.53 19.82,72.12 13.22,14.87 36.62,22.3 70.47,22.3 22.58,0 45.43,-2.75 68.55,-8.26l0 151.68c-44.6,12.39 -87.54,18.45 -129.11,18.45 -150.85,0 -226.28,-83.14 -226.28,-249.13l0 -494.13 -143.69 0 0 -145.35z"/>
   <path class="fil1" d="M4235.72 90.74l183.06 0 444.3 1174.34 -212.79 0 -96.08 -272.53 -454.76 0 -95.24 272.53 -211.97 0 443.48 -1174.34zm261.24 736.64l-170.13 -487.24 -170.12 487.24 340.25 0zm689.57 280.79l464.67 0 0 156.91 -708.29 0 0 -128.01 442.92 -585.52 -434.66 0 0 -158.56 682.97 0 0 124.15 -447.61 591.03zm830.8 0l464.67 0 0 156.91 -708.29 0 0 -128.01 442.92 -585.52 -434.66 0 0 -158.56 682.97 0 0 124.15 -447.61 591.03zm593.78 -87.54c0,-93.04 34.69,-164.62 103.78,-214.44 69.1,-49.83 167.93,-74.6 296.21,-74.6l120.29 0 0 -57.26c0,-45.15 -12.66,-81.21 -37.99,-108.46 -25.05,-27.25 -63.59,-40.74 -115.06,-40.74 -44.87,0 -81.21,11.28 -109.84,33.58 -28.35,22.3 -42.67,50.65 -42.67,85.06l-196.55 0c0,-47.9 15.97,-92.77 47.63,-134.33 31.93,-41.57 74.87,-74.05 129.65,-97.73 54.78,-23.4 115.62,-35.23 183.06,-35.23 102.13,0 183.89,25.6 244.73,77.07 60.83,51.21 91.94,123.33 93.59,216.37l0 393.66c0,78.45 11.01,140.94 33.04,187.74l0 13.76 -200.41 0c-8.53,-16.52 -15.96,-43.49 -22.57,-80.93 -62.49,64.96 -138.74,97.45 -229.03,97.45 -87.82,0 -159.39,-25.05 -214.72,-75.15 -55.33,-50.11 -83.14,-112.04 -83.14,-185.82zm196.55 -19.54c0,37.71 12.39,67.72 37.44,90.01 25.05,22.3 58.36,33.59 100.2,33.59 38.82,0 75.16,-9.36 109.29,-28.36 33.86,-18.72 59.74,-44.04 76.8,-75.97l0 -164.9 -105.43 0c-72.4,0 -126.9,12.67 -163.52,37.99 -36.61,25.33 -54.78,61.11 -54.78,107.64zm911.73 -608.1l4.13 97.73c47.35,-76.26 113.14,-114.24 196.83,-114.24 28.08,0 51.2,3.85 69.37,11.56l-0.83 183.06c-25.87,-4.13 -52.3,-6.33 -79.83,-6.33 -89.74,0 -150.3,34.41 -181.41,103.23l0 597.08 -196.55 0 0 -872.09 188.29 0z"/>
   <path class="fil1" d="M8042.59 814.28l0 -9.64c0,-85.61 17.06,-162.69 50.92,-231.23 33.86,-68.55 81.21,-121.13 142.6,-158.01 61.11,-36.89 131.58,-55.33 211.14,-55.33 117.82,0 213.34,37.98 286.56,113.69 73.5,75.97 113.14,176.45 118.92,301.7l0.83 45.98c0,86.16 -16.52,162.96 -49.55,230.68 -33.03,67.72 -80.38,120.3 -141.77,157.46 -61.66,37.16 -132.68,55.61 -213.34,55.61 -123.05,0 -221.6,-41.02 -295.38,-123.05 -74.05,-82.04 -110.93,-191.32 -110.93,-327.86zm196.55 6.6c0,90.02 18.44,160.22 55.6,211.14 36.89,50.66 88.64,75.98 154.43,75.98 66.07,0 117.55,-25.6 154.44,-77.35 36.61,-51.48 55.05,-127.18 55.05,-226.56 0,-88.09 -18.99,-158.01 -56.71,-209.76 -37.98,-51.48 -89.19,-77.35 -154.15,-77.35 -63.87,0 -114.79,25.32 -152.23,76.25 -37.72,50.65 -56.43,126.63 -56.43,227.65z"/>
  </g>
 </g>
</svg>
